<svg width="16" height="16" viewBox="0 0 16 16" fill="none" xmlns="http://www.w3.org/2000/svg">
<path d="M9.66736 8.6662C9.46958 8.6662 9.27624 8.60755 9.11179 8.49767C8.94734 8.38779 8.81917 8.23161 8.74348 8.04888C8.6678 7.86615 8.64799 7.66509 8.68658 7.47111C8.72516 7.27713 8.8204 7.09894 8.96026 6.95909C9.10011 6.81924 9.27829 6.724 9.47227 6.68541C9.66625 6.64683 9.86732 6.66663 10.05 6.74232C10.2328 6.81801 10.389 6.94618 10.4988 7.11063C10.6087 7.27508 10.6674 7.46842 10.6674 7.6662C10.6674 7.93141 10.562 8.18577 10.3745 8.3733C10.1869 8.56084 9.93258 8.6662 9.66736 8.6662ZM15.948 11.8469C16.0366 12.3562 16.0127 12.8787 15.878 13.3778C15.7433 13.877 15.5011 14.3406 15.1684 14.7362C14.8356 15.1319 14.4203 15.4499 13.9517 15.6682C13.483 15.8864 12.9723 15.9995 12.4554 15.9995H10.334C10.0688 15.9995 9.81446 15.8942 9.62692 15.7066C9.43939 15.5191 9.33403 15.2647 9.33403 14.9995V13.8169C8.89853 13.931 8.45086 13.9924 8.0007 13.9995C7.54974 13.9982 7.10111 13.9349 6.66736 13.8115V14.9995C6.66736 15.2647 6.56201 15.5191 6.37447 15.7066C6.18693 15.8942 5.93258 15.9995 5.66736 15.9995H3.54536C3.02845 15.9994 2.51782 15.8862 2.04925 15.668C1.58068 15.4497 1.1655 15.1316 0.83282 14.736C0.500135 14.3403 0.257987 13.8768 0.123342 13.3777C-0.0113032 12.8786 -0.0351876 12.3561 0.0533623 11.8469L0.320029 10.4975C0.400062 10.0606 0.608521 9.65749 0.918777 9.33962C1.22903 9.02176 1.627 8.8036 2.06185 8.71301C2.49669 8.62242 2.94867 8.66352 3.36004 8.83104C3.77142 8.99857 4.12352 9.28493 4.37136 9.65353C5.10603 10.7329 6.49736 11.9995 8.0007 11.9995C8.9134 11.9524 9.7935 11.6448 10.5369 11.1131C11.2802 10.5815 11.8558 9.84802 12.1954 8.99953C12.2643 8.80448 12.3921 8.63562 12.561 8.51622C12.73 8.39682 12.9318 8.33276 13.1387 8.33286H13.3514C13.5233 8.33147 13.6877 8.26252 13.8092 8.1409C13.9307 8.01928 13.9995 7.85476 14.0007 7.68286C14.0007 7.54471 13.9522 7.41095 13.8636 7.30493C13.775 7.19892 13.652 7.1274 13.516 7.10286C13.3034 7.06416 13.1091 6.95763 12.9621 6.79923C12.8151 6.64083 12.7234 6.43909 12.7007 6.2242C12.5795 5.06301 12.0317 3.98811 11.1635 3.20765C10.2952 2.42719 9.16818 1.99669 8.0007 1.99953C4.66736 1.99953 3.78803 3.96286 3.01403 5.69553L2.9307 5.88153C4.69987 5.63942 6.34905 4.85015 7.64736 3.6242C7.73947 3.52735 7.85005 3.44995 7.97258 3.39656C8.09511 3.34318 8.2271 3.3149 8.36074 3.3134C8.49438 3.3119 8.62697 3.3372 8.75067 3.38781C8.87437 3.43842 8.98667 3.51332 9.08093 3.60807C9.17519 3.70282 9.2495 3.8155 9.29947 3.93946C9.34944 4.06342 9.37405 4.19614 9.37186 4.32978C9.36966 4.46341 9.3407 4.59525 9.28668 4.7175C9.23266 4.83975 9.15469 4.94993 9.05736 5.04153C8.36577 5.72461 7.57343 6.2975 6.70803 6.7402C6.89234 6.81327 7.05088 6.93928 7.16368 7.10233C7.27647 7.26539 7.33846 7.45818 7.34184 7.65642C7.34522 7.85466 7.28982 8.04945 7.18265 8.21625C7.07547 8.38305 6.92131 8.51439 6.73959 8.59369C6.55788 8.673 6.35676 8.69673 6.16158 8.6619C5.9664 8.62706 5.7859 8.53522 5.64284 8.39794C5.49979 8.26067 5.40058 8.08411 5.35772 7.89054C5.31487 7.69696 5.33028 7.49502 5.40203 7.3102C3.96761 7.82591 2.44714 8.05997 0.924029 7.99953C0.70972 7.98489 0.505821 7.90163 0.342519 7.76207C0.179218 7.62252 0.0651944 7.43409 0.0173296 7.22468C-0.0305352 7.01527 -0.00969674 6.79602 0.0767598 6.59937C0.163216 6.40273 0.310695 6.23916 0.497362 6.13286C0.790909 5.753 1.02389 5.33 1.18803 4.87886C2.0007 3.0542 3.36936 -0.00046961 8.0007 -0.00046961C9.55178 -0.00412762 11.0562 0.529803 12.258 1.51046C13.4597 2.49111 14.2845 3.85789 14.592 5.3782C15.0159 5.59518 15.3716 5.92489 15.6202 6.33104C15.8687 6.73719 16.0004 7.20404 16.0007 7.6802C16 8.23684 15.8221 8.77879 15.4927 9.22753L15.948 11.8469ZM4.66736 12.8089C3.90819 12.2453 3.24884 11.5584 2.7167 10.7769C2.69631 10.7422 2.667 10.7137 2.63182 10.6942C2.59664 10.6747 2.55688 10.6651 2.5167 10.6662C2.46133 10.6677 2.40822 10.6885 2.36658 10.725C2.32494 10.7616 2.29739 10.8115 2.2887 10.8662L2.02203 12.2149C1.98773 12.4351 2.00144 12.6601 2.0622 12.8746C2.12297 13.089 2.22936 13.2878 2.3741 13.4573C2.51883 13.6267 2.69849 13.763 2.90076 13.8565C3.10304 13.9501 3.32315 13.9989 3.54603 13.9995H4.66736V12.8089ZM13.9774 12.1889L13.6854 10.5102C13.1186 11.513 12.3104 12.3583 11.334 12.9695V13.9995H12.4547C12.68 13.9994 12.9026 13.9501 13.1068 13.855C13.3111 13.7598 13.4921 13.6212 13.6371 13.4488C13.7822 13.2764 13.8878 13.0743 13.9466 12.8568C14.0053 12.6393 14.0158 12.4115 13.9774 12.1895V12.1889Z" fill="#4F4F4F"/>
</svg>
