<svg width="17" height="16" viewBox="0 0 17 16" fill="none" xmlns="http://www.w3.org/2000/svg">
<path d="M15.8167 5.79668L11.0927 1.07269C9.65971 -0.356587 7.34031 -0.356587 5.90734 1.07269L1.18335 5.79668C0.744352 6.23334 0.49829 6.82746 0.500009 7.44668V14.3653C0.501478 15.2684 1.2336 15.9999 2.13669 16.0007H14.8633C15.7664 15.9999 16.4985 15.2684 16.5 14.3653V7.44668C16.5017 6.82746 16.2557 6.23334 15.8167 5.79668ZM14.5 14.0007H11.1667V11.8793C11.1667 10.4736 10.0271 9.33399 8.62134 9.33399H8.37868C6.97293 9.33399 5.83334 10.4736 5.83334 11.8793V14.0007H2.50001V7.44668C2.50022 7.35827 2.53516 7.27352 2.59735 7.21068L7.32134 2.48669C7.97212 1.83572 9.0274 1.8356 9.67837 2.48638C9.67846 2.48647 9.67858 2.48659 9.67868 2.48669L14.4027 7.21068C14.4648 7.27352 14.4998 7.35827 14.5 7.44668V14.0007H14.5Z" fill="#4F4F4F"/>
</svg>
