<svg width="17" height="16" viewBox="0 0 17 16" fill="none" xmlns="http://www.w3.org/2000/svg">
<path d="M16.4994 6.58377C16.5344 5.71019 16.3885 4.83881 16.0708 4.02428C15.7532 3.20976 15.2706 2.46967 14.6534 1.85043C13.5546 0.799667 12.1293 0.156563 10.6144 0.028006C9.09951 -0.100551 7.58623 0.293183 6.32608 1.14377C5.97741 0.745666 5.53878 0.436511 5.04663 0.241985C4.55447 0.0474591 4.023 -0.026821 3.49637 0.0253154C2.96975 0.0774518 2.46316 0.2545 2.0187 0.54175C1.57424 0.829001 1.20474 1.21816 0.9409 1.6769C0.677056 2.13564 0.526486 2.65072 0.501698 3.17934C0.47691 3.70797 0.578619 4.23487 0.798376 4.71629C1.01813 5.19771 1.34959 5.61974 1.76522 5.94732C2.18085 6.2749 2.66864 6.49858 3.18808 6.59977C3.15483 7.77189 3.39399 8.93574 3.88675 9.99977C3.92102 10.0611 3.93428 10.1319 3.92453 10.2015C3.91479 10.2711 3.88255 10.3356 3.83275 10.3851L1.29008 12.1611V12.1704C1.05423 12.3637 0.862015 12.6048 0.726088 12.8778C0.590161 13.1508 0.513611 13.4494 0.50148 13.7541C0.489349 14.0588 0.541912 14.3626 0.655708 14.6456C0.769503 14.9285 0.941948 15.1841 1.16168 15.3955C1.38142 15.6069 1.64346 15.7694 1.93054 15.8722C2.21762 15.9751 2.52323 16.0159 2.82724 15.9921C3.13125 15.9682 3.42676 15.8802 3.6943 15.7339C3.96184 15.5876 4.19534 15.3862 4.37942 15.1431L4.38608 15.1471L6.09942 12.6664C6.1479 12.6108 6.21348 12.5728 6.28587 12.5585C6.35826 12.5441 6.43337 12.5542 6.49942 12.5871C7.42316 13.0573 8.43827 13.3205 9.47408 13.3584C9.7293 13.3602 9.98427 13.3424 10.2368 13.3051C11.8141 13.1766 13.293 12.4861 14.4041 11.3591C15.6878 10.094 16.4377 8.385 16.4994 6.58377ZM2.49942 3.3331C2.49942 3.06939 2.57762 2.81161 2.72412 2.59234C2.87063 2.37308 3.07887 2.20218 3.32251 2.10126C3.56614 2.00034 3.83423 1.97394 4.09287 2.02539C4.35151 2.07683 4.58909 2.20382 4.77556 2.39029C4.96203 2.57676 5.08902 2.81434 5.14046 3.07298C5.19191 3.33162 5.16551 3.59971 5.06459 3.84335C4.96367 4.08698 4.79278 4.29522 4.57351 4.44173C4.35425 4.58824 4.09646 4.66643 3.83275 4.66643C3.47913 4.66643 3.13999 4.52596 2.88994 4.27591C2.63989 4.02586 2.49942 3.68672 2.49942 3.3331ZM10.7514 11.1998L5.66342 6.11377C6.12442 5.81081 6.50302 5.39817 6.76529 4.91286C7.02755 4.42755 7.16526 3.88474 7.16608 3.3331C7.16062 3.22529 7.14971 3.11782 7.13342 3.0111C8.01281 2.31771 9.11148 1.96224 10.2304 2.00908C11.3493 2.05592 12.4144 2.50198 13.2328 3.26643C13.657 3.69264 13.9885 4.20195 14.2064 4.76239C14.4244 5.32282 14.5242 5.92228 14.4994 6.5231C14.4525 7.81443 13.9132 9.03885 12.9921 9.9451C12.3788 10.5667 11.6019 11.0017 10.7514 11.1998Z" fill="#089449"/>
</svg>
