<svg width="16" height="16" viewBox="0 0 16 16" fill="none" xmlns="http://www.w3.org/2000/svg">
<path d="M12.3003 10.6333C11.8142 10.632 11.3327 10.7272 10.8837 10.9132C10.4346 11.0993 10.027 11.3726 9.68428 11.7173C8.14894 13.2533 5.98961 14 3.08428 14H2.35094C2.28112 14.0007 2.2127 13.9804 2.15451 13.9418C2.09632 13.9032 2.05102 13.8481 2.02448 13.7835C1.99793 13.7189 1.99134 13.6479 2.00556 13.5795C2.01979 13.5112 2.05417 13.4486 2.10428 13.4L3.64228 11.8667L11.2776 9.83067C12.0585 9.62187 12.7486 9.16111 13.2408 8.51992C13.733 7.87873 13.9997 7.09298 13.9996 6.28467V3.66667C13.9984 2.69459 13.6117 1.76267 12.9243 1.07531C12.2369 0.38794 11.305 0.00123484 10.3329 0L7.71494 0C6.9072 0.000612047 6.12221 0.267691 5.4817 0.759827C4.84119 1.25196 4.38093 1.94167 4.17228 2.722L2.06961 10.6067L0.68961 11.988C0.361162 12.3168 0.137538 12.7355 0.0469975 13.1914C-0.0435436 13.6472 0.00306074 14.1196 0.180922 14.549C0.358782 14.9783 0.659918 15.3453 1.04628 15.6036C1.43264 15.8619 1.88688 15.9998 2.35161 16H3.08494C6.49961 16 9.19628 15.0353 11.0989 13.1333C11.3365 12.8959 11.6391 12.7341 11.9686 12.6686C12.298 12.603 12.6395 12.6365 12.9499 12.765C13.2603 12.8934 13.5257 13.1109 13.7125 13.39C13.8993 13.6692 13.9992 13.9974 13.9996 14.3333V15C13.9996 15.2652 14.105 15.5196 14.2925 15.7071C14.48 15.8946 14.7344 16 14.9996 16C15.2648 16 15.5192 15.8946 15.7067 15.7071C15.8943 15.5196 15.9996 15.2652 15.9996 15V14.3333C15.9987 13.3524 15.6087 12.4119 14.9152 11.7182C14.2216 11.0246 13.2812 10.6344 12.3003 10.6333ZM6.10428 3.23733C6.17886 2.96068 6.32378 2.70804 6.52494 2.504L9.13294 4.95867L11.5523 2.53867C11.8388 2.84449 11.9987 3.2476 11.9996 3.66667V6.28467C11.9988 6.6612 11.8705 7.02637 11.6356 7.32067L9.13294 4.95867L4.44028 9.58067L4.41094 9.58867L6.10428 3.23733Z" fill="#4F4F4F"/>
</svg>
