<svg width="16" height="16" viewBox="0 0 16 16" fill="none" xmlns="http://www.w3.org/2000/svg">
<path d="M16 6.72787L15.1673 2.87187C14.9902 2.0555 14.538 1.32477 13.8864 0.802052C13.2348 0.279334 12.4234 -0.00363462 11.588 0.000533682H4.412C3.57665 -0.00363462 2.76523 0.279334 2.11362 0.802052C1.46201 1.32477 1.00978 2.0555 0.832667 2.87187L0.024 6.5112L0 7.36453C0.00301395 8.03343 0.238716 8.68044 0.666667 9.19453V12.3339C0.667725 13.306 1.05437 14.238 1.74178 14.9254C2.42918 15.6128 3.3612 15.9995 4.33333 16.0005H11.6667C12.6388 15.9995 13.5708 15.6128 14.2582 14.9254C14.9456 14.238 15.3323 13.306 15.3333 12.3339V9.19453C15.7613 8.68044 15.997 8.03343 16 7.36453V6.72787ZM2 6.83787L2.78467 3.30453C2.86716 2.9345 3.07335 2.60365 3.3692 2.36658C3.66505 2.12952 4.03288 2.0004 4.412 2.00053H4.66667V3.00053C4.66667 3.26575 4.77202 3.5201 4.95956 3.70764C5.1471 3.89518 5.40145 4.00053 5.66667 4.00053C5.93188 4.00053 6.18624 3.89518 6.37377 3.70764C6.56131 3.5201 6.66667 3.26575 6.66667 3.00053V2.00053H9.33333V3.00053C9.33333 3.26575 9.43869 3.5201 9.62623 3.70764C9.81376 3.89518 10.0681 4.00053 10.3333 4.00053C10.5985 4.00053 10.8529 3.89518 11.0404 3.70764C11.228 3.5201 11.3333 3.26575 11.3333 3.00053V2.00053H11.588C11.9673 2.00046 12.3353 2.12977 12.6312 2.3671C12.927 2.60444 13.1331 2.93559 13.2153 3.30587L14 6.83787V7.36453C13.9936 7.60135 13.895 7.82632 13.7252 7.99156C13.5555 8.15679 13.3279 8.24925 13.091 8.24925C12.8541 8.24925 12.6265 8.15679 12.4568 7.99156C12.287 7.82632 12.1884 7.60135 12.182 7.36453C12.1864 7.14687 12.1473 6.93051 12.0671 6.72814C11.9868 6.52576 11.867 6.34143 11.7146 6.18594C11.5622 6.03045 11.3803 5.90693 11.1796 5.8226C10.9789 5.73827 10.7634 5.69484 10.5457 5.69484C10.328 5.69484 10.1124 5.73827 9.91172 5.8226C9.71101 5.90693 9.52913 6.03045 9.37675 6.18594C9.22437 6.34143 9.10454 6.52576 9.02428 6.72814C8.94402 6.93051 8.90494 7.14687 8.90933 7.36453C8.90933 7.6057 8.81353 7.837 8.643 8.00753C8.47246 8.17806 8.24117 8.27387 8 8.27387C7.75883 8.27387 7.52754 8.17806 7.357 8.00753C7.18647 7.837 7.09067 7.6057 7.09067 7.36453C7.09506 7.14687 7.05598 6.93051 6.97572 6.72814C6.89546 6.52576 6.77563 6.34143 6.62325 6.18594C6.47087 6.03045 6.289 5.90693 6.08828 5.8226C5.88757 5.73827 5.67204 5.69484 5.45433 5.69484C5.23662 5.69484 5.0211 5.73827 4.82039 5.8226C4.61967 5.90693 4.4378 6.03045 4.28542 6.18594C4.13303 6.34143 4.0132 6.52576 3.93294 6.72814C3.85268 6.93051 3.81361 7.14687 3.818 7.36453C3.81159 7.60135 3.713 7.82632 3.54323 7.99156C3.37346 8.15679 3.14591 8.24925 2.909 8.24925C2.67209 8.24925 2.44454 8.15679 2.27477 7.99156C2.105 7.82632 2.00641 7.60135 2 7.36453V6.83787ZM11.6667 14.0005H4.33333C3.89131 14.0005 3.46738 13.8249 3.15482 13.5124C2.84226 13.1998 2.66667 12.7759 2.66667 12.3339V10.2485C2.748 10.2559 2.826 10.2732 2.90933 10.2732C3.42904 10.2728 3.93917 10.1333 4.38676 9.8692C4.83435 9.60508 5.20308 9.22596 5.45467 8.7712C5.70602 9.22613 6.07471 9.60538 6.52235 9.86948C6.97 10.1336 7.48025 10.2729 8 10.2729C8.51975 10.2729 9.03 10.1336 9.47765 9.86948C9.92529 9.60538 10.294 9.22613 10.5453 8.7712C10.7969 9.22596 11.1656 9.60508 11.6132 9.8692C12.0608 10.1333 12.571 10.2728 13.0907 10.2732C13.174 10.2732 13.252 10.2559 13.3333 10.2485V12.3339C13.3333 12.5527 13.2902 12.7695 13.2065 12.9717C13.1227 13.1739 12.9999 13.3576 12.8452 13.5124C12.6904 13.6671 12.5067 13.7899 12.3045 13.8737C12.1023 13.9574 11.8855 14.0005 11.6667 14.0005Z" fill="#4F4F4F"/>
</svg>
