<svg width="16" height="16" viewBox="0 0 16 16" fill="none" xmlns="http://www.w3.org/2000/svg">
<path d="M16 6.66667C16 6.40145 15.8946 6.1471 15.7071 5.95956C15.5196 5.77202 15.2652 5.66667 15 5.66667H14.0213L13.502 3.91333C13.2918 3.23123 12.8856 2.626 12.3341 2.17296C11.7825 1.71992 11.1099 1.43906 10.4 1.36533C10.169 0.952135 9.83214 0.60788 9.42406 0.367932C9.01599 0.127984 8.55139 0.00099169 8.078 0L7.922 0C7.44877 0.000240854 6.98417 0.126627 6.57603 0.366143C6.16789 0.605658 5.83098 0.949642 5.6 1.36267C4.88141 1.43084 4.19925 1.71086 3.64 2.16721C3.08075 2.62356 2.66959 3.23569 2.45867 3.926L1.944 5.66667H1C0.734784 5.66667 0.48043 5.77202 0.292893 5.95956C0.105357 6.1471 0 6.40145 0 6.66667C0 6.93188 0.105357 7.18624 0.292893 7.37377C0.48043 7.56131 0.734784 7.66667 1 7.66667H1.352L1.034 8.752C0.637792 9.09302 0.338473 9.53245 0.166206 10.026C-0.00606127 10.5196 -0.0451893 11.0498 0.0527648 11.5633C0.150719 12.0768 0.382294 12.5554 0.724154 12.9509C1.06601 13.3464 1.50608 13.6448 2 13.816V14.6667C2 15.0203 2.14048 15.3594 2.39052 15.6095C2.64057 15.8595 2.97971 16 3.33333 16C3.68696 16 4.02609 15.8595 4.27614 15.6095C4.52619 15.3594 4.66667 15.0203 4.66667 14.6667V14H11.3333V14.6667C11.3333 15.0203 11.4738 15.3594 11.7239 15.6095C11.9739 15.8595 12.313 16 12.6667 16C13.0203 16 13.3594 15.8595 13.6095 15.6095C13.8595 15.3594 14 15.0203 14 14.6667V13.816C14.4983 13.6433 14.9417 13.3413 15.2848 12.9407C15.6278 12.5402 15.8582 12.0556 15.9522 11.5367C16.0463 11.0178 16.0006 10.4832 15.8199 9.98779C15.6392 9.49235 15.33 9.05387 14.924 8.71733L14.6133 7.66667H15C15.2652 7.66667 15.5196 7.56131 15.7071 7.37377C15.8946 7.18624 16 6.93188 16 6.66667ZM4.37333 4.50533C4.47766 4.16505 4.68871 3.86738 4.97529 3.65631C5.26187 3.44525 5.60876 3.33201 5.96467 3.33333H10C10.354 3.33141 10.6992 3.44304 10.985 3.65183C11.2708 3.86062 11.4822 4.15556 11.588 4.49333L12.626 8H3.33867L4.37333 4.50533ZM13 12H3C2.73478 12 2.48043 11.8946 2.29289 11.7071C2.10536 11.5196 2 11.2652 2 11C2 10.7348 2.10536 10.4804 2.29289 10.2929C2.48043 10.1054 2.73478 10 3 10H3.33333V10.3333C3.33333 10.5985 3.43869 10.8529 3.62623 11.0404C3.81376 11.228 4.06812 11.3333 4.33333 11.3333C4.59855 11.3333 4.8529 11.228 5.04044 11.0404C5.22798 10.8529 5.33333 10.5985 5.33333 10.3333V10H10.6667V10.3333C10.6667 10.5985 10.772 10.8529 10.9596 11.0404C11.1471 11.228 11.4015 11.3333 11.6667 11.3333C11.9319 11.3333 12.1862 11.228 12.3738 11.0404C12.5613 10.8529 12.6667 10.5985 12.6667 10.3333V10H13C13.2652 10 13.5196 10.1054 13.7071 10.2929C13.8946 10.4804 14 10.7348 14 11C14 11.2652 13.8946 11.5196 13.7071 11.7071C13.5196 11.8946 13.2652 12 13 12Z" fill="#4F4F4F"/>
</svg>
