<svg width="17" height="16" viewBox="0 0 17 16" fill="none" xmlns="http://www.w3.org/2000/svg">
<path d="M14.1667 4.13333H12.5V4C12.5 2.93913 12.0786 1.92172 11.3284 1.17157C10.5783 0.421427 9.56087 0 8.5 0C7.43913 0 6.42172 0.421427 5.67157 1.17157C4.92143 1.92172 4.5 2.93913 4.5 4V4.13333H2.83333C2.21681 4.14077 1.62762 4.38899 1.19164 4.82498C0.755659 5.26096 0.507438 5.85014 0.5 6.46667L0.5 12.3333C0.508527 13.3032 0.897573 14.2308 1.58337 14.9166C2.26916 15.6024 3.19685 15.9915 4.16667 16H12.8333C13.8032 15.9915 14.7308 15.6024 15.4166 14.9166C16.1024 14.2308 16.4915 13.3032 16.5 12.3333V6.46667C16.4926 5.85014 16.2443 5.26096 15.8084 4.82498C15.3724 4.38899 14.7832 4.14077 14.1667 4.13333ZM6.5 4C6.5 3.46957 6.71071 2.96086 7.08579 2.58579C7.46086 2.21071 7.96957 2 8.5 2C9.03043 2 9.53914 2.21071 9.91421 2.58579C10.2893 2.96086 10.5 3.46957 10.5 4V4.13333H6.5V4ZM14.5 12.3333C14.5021 12.5528 14.4605 12.7705 14.3775 12.9737C14.2945 13.1768 14.1718 13.3614 14.0166 13.5166C13.8614 13.6718 13.6768 13.7945 13.4737 13.8775C13.2705 13.9605 13.0528 14.0021 12.8333 14H4.16667C3.9472 14.0021 3.72952 13.9605 3.52634 13.8775C3.32317 13.7945 3.13858 13.6718 2.98339 13.5166C2.8282 13.3614 2.70551 13.1768 2.62251 12.9737C2.53951 12.7705 2.49786 12.5528 2.5 12.3333V6.46667C2.49727 6.42218 2.50403 6.37763 2.51981 6.33595C2.5356 6.29427 2.56006 6.25642 2.59157 6.22491C2.62309 6.19339 2.66094 6.16893 2.70262 6.15315C2.74429 6.13736 2.78885 6.13061 2.83333 6.13333H4.5V7C4.5 7.26522 4.60536 7.51957 4.79289 7.70711C4.98043 7.89464 5.23478 8 5.5 8C5.76522 8 6.01957 7.89464 6.20711 7.70711C6.39464 7.51957 6.5 7.26522 6.5 7V6.13333H10.5V7C10.5 7.26522 10.6054 7.51957 10.7929 7.70711C10.9804 7.89464 11.2348 8 11.5 8C11.7652 8 12.0196 7.89464 12.2071 7.70711C12.3946 7.51957 12.5 7.26522 12.5 7V6.13333H14.1667C14.2112 6.13061 14.2557 6.13736 14.2974 6.15315C14.3391 6.16893 14.3769 6.19339 14.4084 6.22491C14.4399 6.25642 14.4644 6.29427 14.4802 6.33595C14.496 6.37763 14.5027 6.42218 14.5 6.46667V12.3333Z" fill="#4F4F4F"/>
</svg>
