<svg width="12" height="12" viewBox="0 0 12 12" fill="none" xmlns="http://www.w3.org/2000/svg">
<path d="M7.41189 5.99994L11.7119 1.70994C11.9002 1.52164 12.006 1.26624 12.006 0.999941C12.006 0.73364 11.9002 0.478245 11.7119 0.289941C11.5236 0.101638 11.2682 -0.00415039 11.0019 -0.00415039C10.7356 -0.00415039 10.4802 0.101638 10.2919 0.289941L6.00189 4.58994L1.71189 0.289941C1.52359 0.101638 1.26819 -0.00415039 1.00189 -0.00415039C0.735591 -0.00415039 0.480196 0.101638 0.291892 0.289941C0.103588 0.478245 -0.00219965 0.73364 -0.00219965 0.999941C-0.00219965 1.26624 0.103588 1.52164 0.291892 1.70994L4.59189 5.99994L0.291892 10.2899C0.198164 10.3829 0.12377 10.4935 0.0730009 10.6154C0.0222322 10.7372 -0.00390625 10.8679 -0.00390625 10.9999C-0.00390625 11.132 0.0222322 11.2627 0.0730009 11.3845C0.12377 11.5064 0.198164 11.617 0.291892 11.7099C0.384855 11.8037 0.495456 11.8781 0.617315 11.9288C0.739175 11.9796 0.86988 12.0057 1.00189 12.0057C1.1339 12.0057 1.26461 11.9796 1.38647 11.9288C1.50833 11.8781 1.61893 11.8037 1.71189 11.7099L6.00189 7.40994L10.2919 11.7099C10.3849 11.8037 10.4955 11.8781 10.6173 11.9288C10.7392 11.9796 10.8699 12.0057 11.0019 12.0057C11.1339 12.0057 11.2646 11.9796 11.3865 11.9288C11.5083 11.8781 11.6189 11.8037 11.7119 11.7099C11.8056 11.617 11.88 11.5064 11.9308 11.3845C11.9816 11.2627 12.0077 11.132 12.0077 10.9999C12.0077 10.8679 11.9816 10.7372 11.9308 10.6154C11.88 10.4935 11.8056 10.3829 11.7119 10.2899L7.41189 5.99994Z" fill="#171717"/>
</svg>
