<svg width="12" height="14" viewBox="0 0 12 14" fill="none" xmlns="http://www.w3.org/2000/svg">
<path d="M6.00065 7H10.6673M10.6673 7L8.66732 9M10.6673 7L8.66732 5M10.6673 3V2.33333C10.6673 1.97971 10.5268 1.64057 10.2768 1.39052C10.0267 1.14048 9.68761 1 9.33398 1H2.66732C2.3137 1 1.97456 1.14048 1.72451 1.39052C1.47446 1.64057 1.33398 1.97971 1.33398 2.33333V11.6667C1.33398 12.0203 1.47446 12.3594 1.72451 12.6095C1.97456 12.8595 2.3137 13 2.66732 13H9.33398C9.68761 13 10.0267 12.8595 10.2768 12.6095C10.5268 12.3594 10.6673 12.0203 10.6673 11.6667V11" stroke="#4F4F4F" stroke-opacity="0.6" stroke-width="1.5" stroke-linecap="round" stroke-linejoin="round"/>
</svg>
