<svg width="24" height="25" viewBox="0 0 24 25" fill="none" xmlns="http://www.w3.org/2000/svg">
<path fill-rule="evenodd" clip-rule="evenodd" d="M19.5 6.25C18.7707 6.25 18.0712 6.53973 17.5555 7.05546C17.2207 7.39024 16.9811 7.80245 16.8542 8.25H3.5C3.08579 8.25 2.75 8.58579 2.75 9C2.75 9.41421 3.08579 9.75 3.5 9.75H16.8542C16.9811 10.1975 17.2207 10.6098 17.5555 10.9445C18.0712 11.4603 18.7707 11.75 19.5 11.75C20.2293 11.75 20.9288 11.4603 21.4445 10.9445C21.9603 10.4288 22.25 9.72935 22.25 9C22.25 8.27065 21.9603 7.57118 21.4445 7.05546C20.9288 6.53973 20.2293 6.25 19.5 6.25ZM18.6161 9.88388C18.3817 9.64946 18.25 9.33152 18.25 9C18.25 8.66848 18.3817 8.35054 18.6161 8.11612C18.8505 7.8817 19.1685 7.75 19.5 7.75C19.8315 7.75 20.1495 7.8817 20.3839 8.11612C20.6183 8.35054 20.75 8.66848 20.75 9C20.75 9.33152 20.6183 9.64946 20.3839 9.88388C20.1495 10.1183 19.8315 10.25 19.5 10.25C19.1685 10.25 18.8505 10.1183 18.6161 9.88388ZM5.5 13.25C6.22935 13.25 6.92882 13.5397 7.44454 14.0555C7.77933 14.3902 8.01888 14.8025 8.14576 15.25H21.5C21.9142 15.25 22.25 15.5858 22.25 16C22.25 16.4142 21.9142 16.75 21.5 16.75H8.14576C8.01888 17.1975 7.77933 17.6098 7.44454 17.9445C6.92882 18.4603 6.22935 18.75 5.5 18.75C4.77065 18.75 4.07118 18.4603 3.55546 17.9445C3.03973 17.4288 2.75 16.7293 2.75 16C2.75 15.2707 3.03973 14.5712 3.55546 14.0555C4.07118 13.5397 4.77065 13.25 5.5 13.25ZM6.75 16C6.75 15.6685 6.6183 15.3505 6.38388 15.1161C6.14946 14.8817 5.83152 14.75 5.5 14.75C5.16848 14.75 4.85054 14.8817 4.61612 15.1161C4.3817 15.3505 4.25 15.6685 4.25 16C4.25 16.3315 4.3817 16.6495 4.61612 16.8839C4.85054 17.1183 5.16848 17.25 5.5 17.25C5.83152 17.25 6.14946 17.1183 6.38388 16.8839C6.6183 16.6495 6.75 16.3315 6.75 16Z" fill="#4F4F4F"/>
</svg>
