<svg width="26" height="26" viewBox="0 0 26 26" fill="none" xmlns="http://www.w3.org/2000/svg">
<path d="M9.05422 0.849779C5.92222 1.92258 3.25102 4.26978 1.76782 7.22898C1.24942 8.25138 0.875016 9.33858 0.651816 10.4618C0.0830158 13.2554 0.479016 16.229 1.76782 18.7778C2.60302 20.441 3.80542 21.917 5.25982 23.069C6.63502 24.1634 8.23342 24.9698 9.93262 25.4234C12.071 25.9994 14.3534 25.985 16.5134 25.4954C18.4646 25.049 20.3078 24.113 21.7766 22.7594C23.3318 21.3266 24.4406 19.4474 25.031 17.4242C25.6718 15.2138 25.7582 12.8594 25.355 10.5986C21.323 10.5986 17.291 10.5986 13.2518 10.5986C13.2518 12.269 13.2518 13.9466 13.2518 15.617C15.5846 15.617 17.9246 15.617 20.2574 15.617C19.9838 17.2226 19.0334 18.6842 17.6798 19.5914C16.8302 20.1602 15.8582 20.5346 14.8502 20.7074C13.835 20.8802 12.791 20.9018 11.783 20.7002C10.7534 20.4986 9.77422 20.0666 8.91742 19.4618C7.54942 18.5042 6.50542 17.093 5.97262 15.5162C5.42542 13.9106 5.41822 12.1178 5.97262 10.5122C6.35422 9.38178 6.99502 8.33058 7.83742 7.48098C8.87422 6.41538 10.2206 5.65938 11.675 5.34978C12.9206 5.08338 14.231 5.13378 15.4478 5.50098C16.4846 5.81778 17.435 6.37938 18.2198 7.12818C19.0118 6.34338 19.7966 5.55138 20.5886 4.76658C20.999 4.34178 21.4382 3.93858 21.8414 3.49938C20.6462 2.39058 19.235 1.49778 17.7014 0.93618C14.951 -0.0934203 11.8334 -0.115021 9.05422 0.849779Z" fill="white"/>
<path d="M9.05264 0.85061C11.8318 -0.11419 14.9494 -0.0925891 17.7142 0.929811C19.2478 1.49141 20.6518 2.38421 21.8542 3.49301C21.451 3.92501 21.019 4.33541 20.6014 4.76021C19.8094 5.54501 19.0246 6.33701 18.2326 7.12181C17.4478 6.37301 16.4974 5.80421 15.4606 5.49461C14.2438 5.12741 12.9334 5.07701 11.6878 5.34341C10.2334 5.65301 8.88704 6.41621 7.85024 7.47461C7.00784 8.32421 6.36704 9.37541 5.98544 10.5058C4.58144 9.41861 3.17744 8.32421 1.77344 7.23701C3.24944 4.27061 5.92064 1.92341 9.05264 0.85061Z" fill="#E94435"/>
<path d="M0.651816 10.4613C0.875016 9.33811 1.25662 8.25092 1.76782 7.22852C3.17182 8.31572 4.57582 9.41012 5.97982 10.4973C5.42542 12.1029 5.43262 13.8957 5.97982 15.5013C4.57582 16.5885 3.17182 17.6829 1.76782 18.7701C0.479016 16.2357 0.0830158 13.2549 0.651816 10.4613Z" fill="#F8BB15"/>
<path d="M13.259 10.5918C17.291 10.5918 21.323 10.5918 25.3622 10.5918C25.7654 12.8526 25.679 15.207 25.0382 17.4174C24.4478 19.4406 23.339 21.327 21.7838 22.7526C20.423 21.6942 19.055 20.6358 17.7014 19.5774C19.055 18.6774 20.0054 17.2086 20.279 15.603C17.9462 15.603 15.6062 15.603 13.2734 15.603C13.2518 13.9398 13.259 12.2694 13.259 10.5918Z" fill="#547DBE"/>
<path d="M1.76953 18.7786C3.17353 17.6914 4.57753 16.597 5.98153 15.5098C6.51433 17.0938 7.55833 18.4978 8.92633 19.4554C9.78313 20.0602 10.7623 20.485 11.7919 20.6938C12.7999 20.8954 13.8511 20.8738 14.8591 20.701C15.8671 20.5282 16.8391 20.1538 17.6887 19.585C19.0495 20.6434 20.4175 21.7018 21.7711 22.7602C20.3023 24.121 18.4591 25.0498 16.5079 25.4962C14.3551 25.9858 12.0727 26.0002 9.92713 25.4242C8.22793 24.9706 6.62953 24.1642 5.25433 23.0698C3.80713 21.9106 2.60473 20.4346 1.76953 18.7786Z" fill="#34A751"/>
</svg>
