<svg width="9" height="14" viewBox="0 0 9 14" fill="none" xmlns="http://www.w3.org/2000/svg">
<path d="M8.30048 6.29004L2.64048 0.640037C2.54752 0.546308 2.43692 0.471914 2.31506 0.421145C2.1932 0.370377 2.06249 0.344238 1.93048 0.344238C1.79847 0.344238 1.66776 0.370377 1.5459 0.421145C1.42404 0.471914 1.31344 0.546308 1.22048 0.640037C1.03423 0.827399 0.929688 1.08085 0.929687 1.34504C0.929688 1.60922 1.03423 1.86267 1.22048 2.05004L6.17048 7.05004L1.22048 12C1.03423 12.1874 0.929687 12.4409 0.929687 12.705C0.929687 12.9692 1.03423 13.2227 1.22048 13.41C1.31309 13.5045 1.42354 13.5797 1.54541 13.6312C1.66729 13.6827 1.79817 13.7095 1.93048 13.71C2.06279 13.7095 2.19367 13.6827 2.31555 13.6312C2.43742 13.5797 2.54787 13.5045 2.64048 13.41L8.30048 7.76004C8.40198 7.66639 8.48299 7.55274 8.5384 7.42624C8.59381 7.29974 8.62241 7.16314 8.62241 7.02504C8.62241 6.88693 8.59381 6.75033 8.5384 6.62383C8.48299 6.49733 8.40198 6.38368 8.30048 6.29004Z" fill="#089449"/>
</svg>
