<svg width="9" height="14" viewBox="0 0 9 14" fill="none" xmlns="http://www.w3.org/2000/svg">
<path d="M0.944351 7.63251L6.47967 13.4047C6.57056 13.5005 6.67951 13.5772 6.80023 13.6307C6.92096 13.6841 7.05106 13.7131 7.18304 13.7159C7.31502 13.7188 7.44627 13.6955 7.5692 13.6475C7.69214 13.5994 7.80434 13.5274 7.89933 13.4357C8.08962 13.2525 8.19967 13.0014 8.20544 12.7372C8.21121 12.4731 8.11222 12.2174 7.93011 12.0261L3.09043 6.91919L8.14731 2.07842C8.33761 1.89517 8.44766 1.64406 8.45342 1.37994C8.45919 1.11582 8.36021 0.860145 8.17809 0.668761C8.08756 0.572274 7.97878 0.49471 7.85806 0.440565C7.73734 0.386421 7.60707 0.356772 7.47481 0.353334C7.34252 0.350995 7.21108 0.37493 7.08811 0.423754C6.96514 0.472578 6.85308 0.545319 6.75843 0.637763L0.97644 6.16286C0.872916 6.25427 0.789445 6.36612 0.73129 6.49138C0.673134 6.61664 0.641554 6.75259 0.63854 6.89066C0.635525 7.02873 0.661141 7.16592 0.713774 7.2936C0.766406 7.42128 0.844915 7.53668 0.944351 7.63251Z" fill="#089449"/>
</svg>
