<svg width="24" height="18" viewBox="0 0 24 18" fill="none" xmlns="http://www.w3.org/2000/svg">
<path d="M22.6806 7.7108C22.9649 8.06518 23.1222 8.52559 23.1222 9.00296C23.1222 9.48034 22.9649 9.94075 22.6806 10.2951C20.8806 12.4744 16.7834 16.7173 12.0006 16.7173C7.21772 16.7173 3.12058 12.4744 1.32057 10.2951C1.03628 9.94075 0.878906 9.48034 0.878906 9.00296C0.878906 8.52559 1.03628 8.06518 1.32057 7.7108C3.12058 5.53148 7.21772 1.28857 12.0006 1.28857C16.7834 1.28857 20.8806 5.53148 22.6806 7.7108Z" stroke="#4F4F4F" stroke-width="1.71429" stroke-linecap="round" stroke-linejoin="round"/>
<path d="M12.0008 12.4314C13.8944 12.4314 15.4294 10.8963 15.4294 9.00279C15.4294 7.10924 13.8944 5.57422 12.0008 5.57422C10.1073 5.57422 8.57227 7.10924 8.57227 9.00279C8.57227 10.8963 10.1073 12.4314 12.0008 12.4314Z" stroke="#4F4F4F" stroke-width="1.71429" stroke-linecap="round" stroke-linejoin="round"/>
</svg>
