<svg width="24" height="24" viewBox="0 0 24 24" fill="none" xmlns="http://www.w3.org/2000/svg">
<path d="M6.22201 6.21416C7.92385 5.10828 9.89583 4.28662 12.0006 4.28662C16.7834 4.28662 20.8806 8.52953 22.6806 10.7088C22.9649 11.0632 23.1222 11.5236 23.1222 12.001C23.1222 12.4784 22.9649 12.9388 22.6806 13.2932C21.6884 14.4945 19.9981 16.3228 17.8799 17.7218M14.572 19.3204C13.7451 19.5705 12.8845 19.7154 12.0006 19.7154C7.21772 19.7154 3.12058 15.4725 1.32057 13.2932C1.03628 12.9388 0.878906 12.4784 0.878906 12.001C0.878906 11.5236 1.03628 11.0632 1.32057 10.7088C1.89087 10.0184 2.69175 9.12075 3.67198 8.21657" stroke="#4F4F4F" stroke-width="1.71429" stroke-linecap="round" stroke-linejoin="round"/>
<path d="M14.4249 14.4254C15.7638 13.0865 15.7638 10.9156 14.4249 9.5767C13.0859 8.23778 10.9151 8.23778 9.57617 9.5767" stroke="#4F4F4F" stroke-width="1.71429" stroke-linecap="round" stroke-linejoin="round"/>
<path d="M23.1431 23.1439L0.857422 0.858154" stroke="#4F4F4F" stroke-width="1.71429" stroke-linecap="round" stroke-linejoin="round"/>
</svg>
