<svg width="14" height="14" viewBox="0 0 14 14" fill="none" xmlns="http://www.w3.org/2000/svg">
<path d="M13.214 5.36659L11.954 4.94659L12.5473 3.75992C12.6075 3.63571 12.6276 3.4959 12.6049 3.35977C12.5822 3.22364 12.5178 3.09791 12.4207 2.99992L11.0007 1.57992C10.9021 1.48131 10.7752 1.41606 10.6377 1.39334C10.5002 1.37062 10.359 1.39157 10.234 1.45325L9.04732 2.04659L8.62732 0.786588C8.58296 0.655249 8.49877 0.541005 8.38645 0.459753C8.27413 0.378501 8.13928 0.334284 8.00065 0.333254H6.00065C5.86089 0.332893 5.72455 0.376467 5.6109 0.457815C5.49725 0.539164 5.41204 0.654174 5.36732 0.786588L4.94732 2.04659L3.76065 1.45325C3.63644 1.39311 3.49663 1.37299 3.3605 1.39568C3.22437 1.41837 3.09864 1.48274 3.00065 1.57992L1.58065 2.99992C1.48204 3.09843 1.41679 3.22537 1.39407 3.36289C1.37135 3.50041 1.3923 3.64159 1.45399 3.76659L2.04732 4.95325L0.78732 5.37325C0.655981 5.41761 0.541737 5.50181 0.460485 5.61412C0.379234 5.72644 0.335016 5.8613 0.333987 5.99992V7.99992C0.333626 8.13968 0.377199 8.27602 0.458548 8.38967C0.539897 8.50332 0.654906 8.58853 0.78732 8.63325L2.04732 9.05325L1.45399 10.2399C1.39384 10.3641 1.37372 10.5039 1.39641 10.6401C1.4191 10.7762 1.48347 10.9019 1.58065 10.9999L3.00065 12.4199C3.09916 12.5185 3.2261 12.5838 3.36362 12.6065C3.50114 12.6292 3.64233 12.6083 3.76732 12.5466L4.95399 11.9533L5.37399 13.2133C5.41871 13.3457 5.50392 13.4607 5.61757 13.542C5.73122 13.6234 5.86756 13.6669 6.00732 13.6666H8.00732C8.14708 13.6669 8.28342 13.6234 8.39707 13.542C8.51072 13.4607 8.59593 13.3457 8.64065 13.2133L9.06065 11.9533L10.2473 12.5466C10.3707 12.6052 10.5092 12.6245 10.6439 12.6019C10.7787 12.5792 10.9032 12.5157 11.0007 12.4199L12.4207 10.9999C12.5193 10.9014 12.5845 10.7745 12.6072 10.637C12.63 10.4994 12.609 10.3582 12.5473 10.2333L11.954 9.04659L13.214 8.62659C13.3453 8.58223 13.4596 8.49803 13.5408 8.38572C13.6221 8.2734 13.6663 8.13854 13.6673 7.99992V5.99992C13.6677 5.86016 13.6241 5.72382 13.5428 5.61017C13.4614 5.49652 13.3464 5.41131 13.214 5.36659ZM12.334 7.51992L11.534 7.78659C11.35 7.84626 11.1812 7.94524 11.0394 8.07665C10.8975 8.20807 10.7859 8.36878 10.7123 8.54764C10.6387 8.7265 10.6049 8.91922 10.6133 9.11244C10.6216 9.30565 10.6719 9.49474 10.7607 9.66659L11.1407 10.4266L10.4073 11.1599L9.66732 10.7599C9.49636 10.6747 9.30909 10.6273 9.11819 10.6208C8.9273 10.6143 8.73723 10.6489 8.56086 10.7222C8.38449 10.7955 8.22594 10.9059 8.09593 11.0458C7.96592 11.1857 7.8675 11.352 7.80732 11.5333L7.54065 12.3333H6.48065L6.21399 11.5333C6.15431 11.3493 6.05534 11.1805 5.92392 11.0386C5.7925 10.8967 5.63179 10.7851 5.45293 10.7116C5.27408 10.638 5.08135 10.6042 4.88814 10.6126C4.69492 10.6209 4.50583 10.6712 4.33399 10.7599L3.57399 11.1399L2.84065 10.4066L3.24065 9.66659C3.32938 9.49474 3.37967 9.30565 3.38802 9.11244C3.39637 8.91922 3.36258 8.7265 3.28901 8.54764C3.21544 8.36878 3.10384 8.20807 2.96195 8.07665C2.82006 7.94524 2.65128 7.84626 2.46732 7.78659L1.66732 7.51992V6.47992L2.46732 6.21325C2.65128 6.15358 2.82006 6.0546 2.96195 5.92319C3.10384 5.79177 3.21544 5.63106 3.28901 5.4522C3.36258 5.27334 3.39637 5.08062 3.38802 4.8874C3.37967 4.69419 3.32938 4.5051 3.24065 4.33325L2.86065 3.59325L3.59399 2.85992L4.33399 3.23992C4.50583 3.32865 4.69492 3.37893 4.88814 3.38728C5.08135 3.39563 5.27408 3.36185 5.45293 3.28828C5.63179 3.21471 5.7925 3.10311 5.92392 2.96122C6.05534 2.81933 6.15431 2.65055 6.21399 2.46659L6.48065 1.66659H7.52065L7.78732 2.46659C7.84699 2.65055 7.94597 2.81933 8.07739 2.96122C8.2088 3.10311 8.36952 3.21471 8.54837 3.28828C8.72723 3.36185 8.91995 3.39563 9.11317 3.38728C9.30639 3.37893 9.49548 3.32865 9.66732 3.23992L10.4273 2.85992L11.1607 3.59325L10.7607 4.33325C10.6755 4.50422 10.628 4.69148 10.6215 4.88238C10.615 5.07327 10.6496 5.26334 10.7229 5.43971C10.7962 5.61608 10.9066 5.77463 11.0465 5.90464C11.1865 6.03465 11.3527 6.13307 11.534 6.19325L12.334 6.45992V7.51992ZM7.00065 4.33325C6.47324 4.33325 5.95766 4.48965 5.51913 4.78267C5.0806 5.07569 4.73881 5.49216 4.53697 5.97943C4.33514 6.4667 4.28233 7.00288 4.38523 7.52016C4.48812 8.03744 4.74209 8.5126 5.11503 8.88554C5.48797 9.25848 5.96313 9.51245 6.48041 9.61535C6.99769 9.71824 7.53387 9.66543 8.02114 9.4636C8.50841 9.26177 8.92489 8.91997 9.2179 8.48144C9.51092 8.04291 9.66732 7.52734 9.66732 6.99992C9.66732 6.29268 9.38637 5.6144 8.88627 5.1143C8.38617 4.61421 7.7079 4.33325 7.00065 4.33325ZM7.00065 8.33325C6.73694 8.33325 6.47916 8.25505 6.25989 8.10855C6.04063 7.96204 5.86973 7.7538 5.76881 7.51016C5.6679 7.26653 5.64149 6.99844 5.69294 6.7398C5.74439 6.48116 5.87137 6.24358 6.05784 6.05711C6.24431 5.87064 6.48189 5.74365 6.74053 5.69221C6.99917 5.64076 7.26726 5.66716 7.5109 5.76808C7.75453 5.869 7.96277 6.03989 8.10928 6.25916C8.25579 6.47843 8.33399 6.73621 8.33399 6.99992C8.33399 7.35354 8.19351 7.69268 7.94346 7.94273C7.69341 8.19278 7.35427 8.33325 7.00065 8.33325Z" fill="#333333" fill-opacity="0.6"/>
</svg>
