<svg width="16" height="16" viewBox="0 0 16 16" fill="none" xmlns="http://www.w3.org/2000/svg">
<path d="M4.5676 15.6249C4.0588 15.6226 3.5638 15.4592 3.1536 15.1582C2.73441 14.8633 2.42161 14.441 2.26173 13.954C2.10186 13.4671 2.10345 12.9415 2.26627 12.4555L3.04627 10.0429L0.992936 8.54153C0.581231 8.24073 0.275215 7.81742 0.11867 7.33216C-0.0378739 6.8469 -0.0369247 6.32457 0.121382 5.83988C0.279689 5.3552 0.587242 4.933 1.00004 4.6337C1.41283 4.33439 1.90972 4.17333 2.4196 4.17353H4.93294L5.69627 1.79353C5.85293 1.30616 6.16023 0.88108 6.57392 0.579519C6.98761 0.277959 7.48634 0.115479 7.99827 0.115479C8.5102 0.115479 9.00893 0.277959 9.42262 0.579519C9.83631 0.88108 10.1436 1.30616 10.3003 1.79353L11.0663 4.17353H13.5796C14.0894 4.17347 14.5862 4.33464 14.9989 4.63399C15.4116 4.93334 15.719 5.35554 15.8773 5.8402C16.0355 6.32485 16.0364 6.84713 15.8798 7.33232C15.7233 7.81751 15.4173 8.24077 15.0056 8.54153L12.9529 10.0429L13.7329 12.4555C13.8902 12.9422 13.889 13.4662 13.7296 13.9522C13.5703 14.4382 13.2608 14.8611 12.8459 15.1601C12.4309 15.4591 11.9318 15.6187 11.4204 15.6161C10.9089 15.6135 10.4115 15.4487 9.9996 15.1455L7.9996 13.6749L5.9996 15.1462C5.58577 15.4549 5.08385 15.6226 4.5676 15.6249ZM2.4196 6.17353C2.33161 6.17352 2.24586 6.20133 2.17461 6.25298C2.10337 6.30462 2.05027 6.37747 2.02291 6.46111C1.99555 6.54474 1.99533 6.63488 2.02227 6.71865C2.04921 6.80242 2.10195 6.87553 2.17294 6.92753L4.81027 8.85487C4.98009 8.97904 5.10643 9.15361 5.1713 9.35373C5.23617 9.55386 5.23628 9.76934 5.1716 9.96953L4.1716 13.0695C4.14385 13.1536 4.14357 13.2444 4.17079 13.3286C4.19801 13.4129 4.25133 13.4863 4.32303 13.5383C4.39474 13.5902 4.4811 13.618 4.56965 13.6176C4.6582 13.6173 4.74434 13.5888 4.8156 13.5362L7.40827 11.6289C7.58003 11.5025 7.78769 11.4343 8.00094 11.4343C8.21418 11.4343 8.42184 11.5025 8.5936 11.6289L11.1863 13.5355C11.2574 13.5886 11.3437 13.6175 11.4325 13.6181C11.5212 13.6187 11.6079 13.5909 11.6797 13.5388C11.7516 13.4868 11.805 13.4131 11.8321 13.3285C11.8591 13.244 11.8585 13.153 11.8303 13.0689L10.8303 9.96887C10.7656 9.76868 10.7657 9.55319 10.8306 9.35307C10.8954 9.15294 11.0218 8.97837 11.1916 8.8542L13.8283 6.92687C13.8992 6.8749 13.9519 6.80185 13.9789 6.71814C14.0058 6.63444 14.0057 6.54436 13.9784 6.46076C13.9511 6.37715 13.8981 6.3043 13.827 6.2526C13.7559 6.2009 13.6702 6.173 13.5823 6.17287H10.3329C10.1211 6.17281 9.91482 6.10552 9.74373 5.98067C9.57264 5.85583 9.44561 5.67988 9.38094 5.4782L8.3996 2.4042C8.37257 2.32007 8.31954 2.24668 8.24813 2.19462C8.17673 2.14256 8.09064 2.11451 8.00227 2.11451C7.9139 2.11451 7.82781 2.14256 7.75641 2.19462C7.685 2.24668 7.63196 2.32007 7.60494 2.4042L6.61627 5.47887C6.55171 5.68023 6.42497 5.85594 6.25428 5.98075C6.08359 6.10556 5.87773 6.17306 5.66627 6.17353H2.4196Z" fill="#089449"/>
</svg>
