<svg width="25" height="24" viewBox="0 0 25 24" fill="none" xmlns="http://www.w3.org/2000/svg">
<path d="M15.5054 22.2543C16.5589 22.9338 17.8143 23.2301 19.0605 23.0931C20.3067 22.956 21.4677 22.394 22.3482 21.5016L23.1181 20.7488C23.4556 20.4036 23.6445 19.94 23.6445 19.4573C23.6445 18.9745 23.4556 18.5108 23.1181 18.1657L19.8506 14.9324C19.5083 14.596 19.0475 14.4075 18.5676 14.4075C18.0876 14.4075 17.6269 14.596 17.2845 14.9324C16.9393 15.2699 16.4757 15.4589 15.993 15.4589C15.5102 15.4589 15.0466 15.2699 14.7014 14.9324L9.56925 9.80031C9.39805 9.63159 9.26208 9.43052 9.16929 9.2088C9.0765 8.98707 9.0287 8.7491 9.0287 8.50874C9.0287 8.26836 9.0765 8.0304 9.16929 7.80866C9.26208 7.58693 9.39805 7.38586 9.56925 7.21714C9.90566 6.87483 10.0942 6.41407 10.0942 5.93412C10.0942 5.45415 9.90566 4.9934 9.56925 4.65108L6.31893 1.40073C5.97367 1.06323 5.51013 0.874268 5.02739 0.874268C4.54448 0.874268 4.08093 1.06323 3.73567 1.40073L2.98293 2.17056C2.09064 3.05112 1.5287 4.21212 1.39156 5.4583C1.25442 6.7045 1.55065 7.95989 2.23036 9.01339C5.77156 14.2323 10.2774 18.7265 15.5054 22.2543Z" fill="#F3F3F3" stroke="white" stroke-linecap="round" stroke-linejoin="round"/>
</svg>
