<svg width="12" height="14" viewBox="0 0 12 14" fill="none" xmlns="http://www.w3.org/2000/svg">
<path d="M10.2013 4.72699L10.808 4.12699C10.9335 4.00146 11.004 3.83119 11.004 3.65366C11.004 3.47612 10.9335 3.30586 10.808 3.18033C10.6825 3.05479 10.5122 2.98426 10.3347 2.98426C10.1571 2.98426 9.98686 3.05479 9.86132 3.18033L9.26132 3.78699C8.32702 3.06423 7.17921 2.67208 5.99799 2.67208C4.81676 2.67208 3.66895 3.06423 2.73465 3.78699L2.12799 3.17366C2.00157 3.04812 1.83046 2.97795 1.6523 2.97857C1.47414 2.9792 1.30352 3.05057 1.17799 3.17699C1.05245 3.30341 0.982276 3.47452 0.982902 3.65268C0.983527 3.83084 1.0549 4.00146 1.18132 4.12699L1.79465 4.73366C1.06333 5.66536 0.666513 6.81589 0.667986 8.00033C0.665809 8.85061 0.866962 9.68909 1.25467 10.4458C1.64238 11.2026 2.2054 11.8557 2.89678 12.3506C3.58816 12.8456 4.38787 13.168 5.22919 13.2911C6.07052 13.4142 6.92909 13.3344 7.73329 13.0583C8.53749 12.7821 9.26401 12.3177 9.85227 11.7038C10.4405 11.0898 10.8735 10.3441 11.115 9.52884C11.3565 8.71358 11.3996 7.85239 11.2406 7.01709C11.0817 6.18179 10.7254 5.39659 10.2013 4.72699ZM6.00132 12.0003C5.21019 12.0003 4.43684 11.7657 3.77904 11.3262C3.12124 10.8867 2.60855 10.262 2.3058 9.53106C2.00305 8.80015 1.92384 7.99589 2.07818 7.21996C2.23252 6.44404 2.61348 5.73131 3.17289 5.1719C3.7323 4.61249 4.44503 4.23153 5.22096 4.07718C5.99688 3.92284 6.80115 4.00206 7.53205 4.30481C8.26296 4.60756 8.88767 5.12025 9.3272 5.77804C9.76672 6.43584 10.0013 7.2092 10.0013 8.00033C10.0013 9.06119 9.57989 10.0786 8.82975 10.8288C8.0796 11.5789 7.06219 12.0003 6.00132 12.0003ZM4.66799 2.00033H7.33465C7.51146 2.00033 7.68103 1.93009 7.80606 1.80506C7.93108 1.68004 8.00132 1.51047 8.00132 1.33366C8.00132 1.15685 7.93108 0.987279 7.80606 0.862254C7.68103 0.73723 7.51146 0.666992 7.33465 0.666992H4.66799C4.49118 0.666992 4.32161 0.73723 4.19658 0.862254C4.07156 0.987279 4.00132 1.15685 4.00132 1.33366C4.00132 1.51047 4.07156 1.68004 4.19658 1.80506C4.32161 1.93009 4.49118 2.00033 4.66799 2.00033ZM6.66799 6.00033C6.66799 5.82351 6.59775 5.65395 6.47272 5.52892C6.3477 5.4039 6.17813 5.33366 6.00132 5.33366C5.82451 5.33366 5.65494 5.4039 5.52992 5.52892C5.40489 5.65395 5.33465 5.82351 5.33465 6.00033V7.26033C5.1837 7.39534 5.0773 7.57301 5.02953 7.76982C4.98177 7.96663 4.99488 8.17331 5.06715 8.3625C5.13941 8.5517 5.26742 8.71449 5.43423 8.82934C5.60104 8.94419 5.79879 9.00568 6.00132 9.00568C6.20385 9.00568 6.4016 8.94419 6.56841 8.82934C6.73522 8.71449 6.86323 8.5517 6.93549 8.3625C7.00776 8.17331 7.02087 7.96663 6.97311 7.76982C6.92534 7.57301 6.81894 7.39534 6.66799 7.26033V6.00033Z" fill="#828282"/>
</svg>
